<svg xmlns="http://www.w3.org/2000/svg" width="960" height="540" viewBox="0 0 960 540">
<rect width="100%" height="100%" fill="white"/>
<style>text{font-family:ui-sans-serif,system-ui,sans-serif;fill:#18212f}.axis{stroke:#657083;stroke-width:1}.grid{stroke:#dce1e8;stroke-width:1}.trace{fill:none;stroke:#1769aa;stroke-width:2}.mark{stroke:#c43d3d;stroke-width:1.5;stroke-dasharray:5 4}.label{font-size:13px}.title{font-size:19px;font-weight:600}</style>
<text class="title" x="92" y="26">GunPoint: long-horizon float32 parameter divergence</text>
<line class="grid" x1="92" y1="468.00" x2="932" y2="468.00"/>
<text class="label" text-anchor="end" x="82" y="472.00">10^-12</text>
<line class="grid" x1="92" y1="402.46" x2="932" y2="402.46"/>
<text class="label" text-anchor="end" x="82" y="406.46">10^-10</text>
<line class="grid" x1="92" y1="336.92" x2="932" y2="336.92"/>
<text class="label" text-anchor="end" x="82" y="340.92">10^-8</text>
<line class="grid" x1="92" y1="271.38" x2="932" y2="271.38"/>
<text class="label" text-anchor="end" x="82" y="275.38">10^-6</text>
<line class="grid" x1="92" y1="205.85" x2="932" y2="205.85"/>
<text class="label" text-anchor="end" x="82" y="209.85">10^-4</text>
<line class="grid" x1="92" y1="140.31" x2="932" y2="140.31"/>
<text class="label" text-anchor="end" x="82" y="144.31">10^-2</text>
<line class="grid" x1="92" y1="74.77" x2="932" y2="74.77"/>
<text class="label" text-anchor="end" x="82" y="78.77">10^0</text>
<line class="grid" x1="92.00" y1="42" x2="92.00" y2="468"/>
<text class="label" text-anchor="middle" x="92.00" y="492">0</text>
<line class="grid" x1="260.00" y1="42" x2="260.00" y2="468"/>
<text class="label" text-anchor="middle" x="260.00" y="492">25,000</text>
<line class="grid" x1="428.00" y1="42" x2="428.00" y2="468"/>
<text class="label" text-anchor="middle" x="428.00" y="492">50,000</text>
<line class="grid" x1="596.00" y1="42" x2="596.00" y2="468"/>
<text class="label" text-anchor="middle" x="596.00" y="492">75,000</text>
<line class="grid" x1="764.00" y1="42" x2="764.00" y2="468"/>
<text class="label" text-anchor="middle" x="764.00" y="492">100,000</text>
<line class="grid" x1="932.00" y1="42" x2="932.00" y2="468"/>
<text class="label" text-anchor="middle" x="932.00" y="492">125,000</text>
<line class="axis" x1="92" y1="468" x2="932" y2="468"/>
<line class="axis" x1="92" y1="42" x2="92" y2="468"/>
<path class="trace" d="M92.01,468.00 L92.01,360.84 L93.68,341.11 L95.36,321.38 L97.04,311.52 L98.72,311.52 L100.40,301.65 L102.08,291.79 L103.76,286.02 L105.44,281.92 L107.12,278.75 L108.80,278.75 L110.48,281.92 L112.16,278.75 L113.84,278.75 L115.52,270.38 L117.20,273.96 L118.88,272.06 L120.56,270.38 L122.24,262.20 L123.92,262.20 L125.60,262.20 L127.28,260.52 L128.96,262.20 L130.64,262.20 L132.32,260.52 L134.00,260.52 L135.68,262.20 L137.36,262.20 L139.04,260.52 L140.72,262.20 L142.40,260.52 L144.08,260.52 L145.76,259.02 L147.44,257.66 L149.12,257.66 L150.80,257.66 L152.48,257.66 L154.16,258.33 L155.84,257.34 L157.52,255.56 L159.20,253.98 L160.88,254.49 L162.56,254.23 L164.24,253.01 L165.07,254.49 L165.92,254.75 L167.60,246.45 L169.28,248.29 L170.96,251.47 L172.64,203.94 L174.32,210.44 L176.00,212.68 L177.68,214.34 L179.36,192.58 L181.04,162.41 L182.72,140.50 L184.40,142.97 L186.08,144.40 L187.76,123.44 L189.44,128.08 L191.12,124.99 L192.80,128.40 L194.48,127.97 L196.16,127.10 L197.84,109.37 L199.52,107.52 L201.20,114.91 L202.88,116.29 L204.56,115.30 L206.24,113.61 L207.92,112.82 L209.60,103.95 L211.28,120.34 L212.96,119.96 L214.64,118.58 L216.32,102.22 L218.00,116.46 L219.68,112.62 L221.36,110.69 L223.04,114.64 L224.72,107.19 L226.40,112.84 L228.08,113.07 L229.76,108.18 L231.44,115.86 L233.12,115.87 L234.80,117.15 L236.48,108.45 L238.16,113.11 L239.84,108.55 L241.52,114.52 L243.20,112.88 L244.88,108.12 L246.56,104.78 L248.24,98.79 L249.92,110.50 L251.60,112.52 L253.28,105.54 L254.96,108.61 L256.64,113.17 L258.32,109.15 L260.00,99.34 L261.68,111.19 L263.36,106.57 L265.04,107.57 L266.72,98.22 L268.40,91.37 L270.08,92.87 L271.76,95.68 L273.44,96.58 L275.12,97.95 L276.80,95.15 L278.48,93.30 L280.16,95.10 L281.84,92.75 L283.52,94.79 L285.20,93.33 L286.88,86.72 L288.56,90.49 L290.24,94.77 L291.92,97.49 L293.60,93.46 L295.28,95.60 L296.96,96.77 L298.64,99.13 L300.32,87.65 L302.00,88.89 L303.68,86.71 L305.36,87.26 L307.04,85.45 L308.72,87.15 L310.40,88.94 L312.08,90.45 L313.76,91.25 L315.44,87.72 L317.12,95.06 L318.80,93.37 L320.48,89.15 L322.16,89.17 L323.84,85.78 L325.52,87.68 L327.20,87.95 L328.88,87.02 L330.56,86.73 L332.24,86.29 L333.92,86.12 L335.60,83.38 L337.28,82.17 L338.96,83.00 L340.64,82.41 L342.32,82.02 L344.00,80.55 L345.68,81.06 L347.36,80.20 L349.04,80.38 L350.72,80.46 L352.40,80.95 L354.08,81.25 L355.76,81.91 L357.44,77.93 L359.12,77.11 L360.80,77.88 L362.48,78.22 L364.16,78.29 L365.84,78.60 L367.52,78.73 L369.20,79.08 L370.88,79.46 L372.56,79.77 L374.24,80.19 L375.92,80.74 L377.60,81.39 L379.28,82.55 L380.96,82.14 L382.64,82.08 L384.32,81.98 L386.00,82.53 L387.68,79.73 L389.36,81.50 L391.04,81.92 L392.72,81.60 L394.40,82.08 L396.08,82.15 L397.76,82.03 L399.44,81.54 L401.12,82.01 L402.80,76.79 L404.48,77.82 L406.16,77.95 L407.84,78.51 L409.52,78.53 L411.20,78.66 L412.88,78.85 L414.56,78.52 L416.24,77.39 L417.92,78.08 L419.60,78.33 L421.28,78.30 L422.96,78.41 L424.64,78.57 L426.32,78.62 L428.00,78.82 L429.68,78.99 L431.36,79.08 L433.04,79.27 L434.72,79.37 L436.40,79.46 L438.08,79.55 L439.76,81.40 L441.44,81.45 L443.12,81.58 L444.80,81.72 L446.48,81.65 L448.16,81.80 L449.84,81.91 L451.52,82.02 L453.20,82.11 L454.88,82.02 L456.56,81.98 L458.24,81.94 L459.92,81.94 L461.60,81.95 L463.28,74.78 L464.96,66.38 L466.64,65.44 L468.32,65.72 L470.00,65.81 L471.68,67.63 L473.36,69.20 L475.04,70.39 L476.72,71.32 L478.40,72.07 L480.08,72.80 L481.76,73.40 L483.44,74.01 L485.12,74.58 L486.80,75.08 L488.48,75.64 L490.16,76.13 L491.84,76.57 L493.52,75.58 L495.20,71.45 L496.88,71.71 L498.56,72.53 L500.24,72.58 L501.92,72.89 L503.60,73.19 L505.28,73.60 L506.96,74.07 L508.64,74.26 L510.32,74.53 L512.00,75.06 L513.68,75.12 L515.36,74.03 L517.04,73.54 L518.72,73.90 L520.40,74.10 L522.08,74.68 L523.76,74.90 L525.44,75.39 L527.12,75.45 L528.80,75.91 L530.48,76.62 L532.16,76.49 L533.84,76.66 L535.52,76.11 L537.20,75.77 L538.88,75.45 L540.56,75.11 L542.24,74.90 L543.92,74.17 L545.60,73.74 L547.28,73.40 L548.96,72.83 L550.64,72.62 L552.32,72.50 L554.00,71.99 L555.68,71.63 L557.36,71.10 L559.04,70.73 L560.72,70.49 L562.40,70.22 L564.08,69.92 L565.76,69.51 L567.44,69.29 L569.12,69.03 L570.80,69.98 L572.48,69.72 L574.16,69.43 L575.84,68.98 L577.52,68.62 L579.20,68.32 L580.88,68.06 L582.56,67.76 L584.24,67.47 L585.92,67.22 L587.60,67.02 L589.28,67.43 L590.96,67.11 L592.64,67.05 L594.32,66.82 L596.00,66.64 L597.68,66.43 L599.36,66.28 L601.04,66.17 L602.72,65.96 L604.40,65.78 L606.08,65.58 L607.76,65.41 L609.44,65.24 L611.12,65.11 L612.80,64.98 L614.48,64.84 L616.16,64.69 L617.84,64.54 L619.52,64.42 L621.20,64.30 L622.88,64.21 L624.56,64.20 L626.24,64.04 L627.92,63.94 L629.60,63.83 L631.28,63.73 L632.96,63.61 L634.64,63.55 L636.32,63.44 L638.00,63.33 L639.68,64.60 L641.36,64.57 L643.04,64.30 L644.72,64.04 L646.40,63.83 L648.08,63.68 L649.76,63.51 L651.44,63.39 L653.12,63.23 L654.80,63.13 L656.48,63.01 L658.16,62.91 L659.84,62.81 L661.52,62.85 L663.20,62.73 L664.88,62.91 L666.56,61.20 L668.24,61.04 L669.92,60.75 L671.60,60.51 L673.28,60.27 L674.96,60.22 L676.64,60.19 L678.32,59.83 L680.00,60.08 L681.68,59.87 L683.36,59.71 L685.04,59.82 L686.72,60.10 L688.40,59.88 L690.08,59.95 L691.76,59.96 L693.44,59.74 L695.12,59.65 L696.80,59.26 L698.48,59.42 L700.16,59.15 L701.84,59.27 L703.52,59.65 L705.20,59.41 L706.88,58.95 L708.56,59.10 L710.24,59.00 L711.92,58.68 L713.60,58.81 L715.28,59.24 L716.96,59.26 L718.64,58.77 L720.32,58.82 L722.00,58.67 L723.68,58.63 L725.36,58.50 L727.04,58.84 L728.72,58.44 L730.40,58.27 L732.08,58.23 L733.76,58.39 L735.44,58.42 L737.12,58.22 L738.80,58.90 L740.48,60.45 L742.16,61.26 L743.84,59.90 L745.52,59.95 L747.20,59.00 L748.88,59.03 L750.56,59.01 L752.24,58.90 L753.92,58.94 L755.60,59.01 L757.28,59.01 L758.96,59.00 L760.64,59.00 L762.32,58.98 L764.00,59.02 L765.68,58.97 L767.36,58.96 L769.04,58.97 L770.72,58.96 L772.40,58.96 L774.08,58.95 L775.76,58.96 L777.44,59.11 L779.12,59.11 L780.80,59.23 L782.48,59.36 L784.16,59.38 L785.84,59.38 L787.52,59.39 L789.20,59.41 L790.88,59.44 L792.56,59.39 L794.24,59.44 L795.92,59.47 L797.60,59.50 L799.28,59.51 L800.96,59.54 L802.64,59.57 L804.32,59.59 L806.00,59.58 L807.68,59.63 L809.36,58.41 L811.04,58.43 L812.72,58.46 L814.40,58.49 L816.08,58.52 L817.76,58.61 L819.44,58.66 L821.12,58.68 L822.80,58.73 L824.48,58.78 L826.16,58.81 L827.84,58.85 L829.52,58.90 L831.20,58.95 L832.88,58.89 L834.56,58.87 L836.24,58.80 L837.92,58.55 L839.60,58.34 L841.28,58.21 L842.96,58.20 L844.64,58.20 L846.32,58.22 L848.00,58.18 L849.68,58.15 L851.36,58.19 L853.04,58.17 L854.72,58.23 L856.40,58.21 L858.08,58.22 L859.76,58.23 L861.44,58.17 L863.12,58.19 L864.80,58.26 L866.48,58.26 L868.16,58.19 L869.84,58.21 L871.52,58.30 L873.20,58.34 L874.88,58.35 L876.56,58.42 L878.24,58.45 L879.92,58.47 L881.60,58.48 L883.28,58.51 L884.96,58.53 L886.64,58.64 L888.32,58.64 L890.00,58.82 L891.68,58.91 L893.36,59.06 L895.04,59.14 L896.72,59.16 L898.40,59.31 L900.08,59.31 L901.76,59.29 L903.44,59.31 L905.12,59.33 L906.80,59.29 L908.48,59.63 L910.16,59.61 L911.84,59.57 L913.52,59.50 L915.20,59.49 L916.88,59.55 L918.56,59.73 L920.24,59.91 L921.92,60.05 L923.60,60.20 L925.28,60.24 L926.96,59.96 L928.64,59.92 L930.32,59.78 L932.00,59.50"/>
<line class="mark" x1="92.01" y1="42" x2="92.01" y2="468"/>
<text class="label" text-anchor="start" x="99.01" y="62">first persistent-state divergence (1 ULP) · update 2</text>
<line class="mark" x1="165.07" y1="42" x2="165.07" y2="468"/>
<text class="label" text-anchor="start" x="172.07" y="84">first material logit divergence · update 10,874</text>
<text class="label" text-anchor="middle" x="512.00" y="522">Training update</text>
<text class="label" text-anchor="middle" transform="translate(22 255.00) rotate(-90)">Maximum absolute parameter-state delta (log scale)</text>
</svg>
